<mxfile host="app.diagrams.net" modified="2021-04-07T08:34:00.604Z" agent="5.0 (Windows NT 10.0; Win64; x64) AppleWebKit/537.36 (KHTML, like Gecko) Chrome/89.0.4389.114 Safari/537.36" etag="92dA2Xp_9GXEXLeUJxAe" version="14.5.8" type="github">
  <diagram id="DvkFHIUMrm5BvAKuZIOw" name="Page-1">
    <mxGraphModel dx="1182" dy="708" grid="1" gridSize="10" guides="1" tooltips="1" connect="1" arrows="1" fold="1" page="1" pageScale="1" pageWidth="827" pageHeight="1169" math="0" shadow="0">
      <root>
        <mxCell id="0" />
        <mxCell id="1" parent="0" />
        <mxCell id="ksFjuEktkhcV7ZAcGRnr-2" value="CDC" style="rounded=0;whiteSpace=wrap;html=1;fillColor=#dae8fc;strokeColor=#6c8ebf;" vertex="1" parent="1">
          <mxGeometry x="80" y="70" width="120" height="60" as="geometry" />
        </mxCell>
        <mxCell id="ksFjuEktkhcV7ZAcGRnr-4" value="iap" style="rounded=1;whiteSpace=wrap;html=1;" vertex="1" parent="1">
          <mxGeometry x="80" y="240" width="740" height="160" as="geometry" />
        </mxCell>
        <mxCell id="ksFjuEktkhcV7ZAcGRnr-5" value="执法记录仪" style="rounded=0;whiteSpace=wrap;html=1;fillColor=#d5e8d4;strokeColor=#82b366;" vertex="1" parent="1">
          <mxGeometry x="340" y="70" width="120" height="60" as="geometry" />
        </mxCell>
      </root>
    </mxGraphModel>
  </diagram>
</mxfile>
